Griffith_Gothic-Black_Italic.ufo
<glyph name="quotedbl" format="1">
  <advance width="442"/>
  <unicode hex="0022"/>
  <outline>
    <contour>
      <point x="501" y="720" type="line"/>
      <point x="392" y="440" type="line"/>
      <point x="313" y="440" type="line"/>
      <point x="344" y="720" type="line"/>
    </contour>
    <contour>
      <point x="292" y="720" type="line"/>
      <point x="183" y="440" type="line"/>
      <point x="104" y="440" type="line"/>
      <point x="135" y="720" type="line"/>
    </contour>
  </outline>
</glyph>
<glyph name="percent" format="1">
  <advance width="928"/>
  <unicode hex="0025"/>
  <outline>
    <contour>
      <point x="900" y="257" type="curve" smooth="yes"/>
      <point x="900" y="134"/>
      <point x="815" y="-7"/>
      <point x="678" y="-7" type="curve" smooth="yes"/>
      <point x="587" y="-7"/>
      <point x="519" y="45"/>
      <point x="519" y="150" type="curve" smooth="yes"/>
      <point x="519" y="273"/>
      <point x="604" y="414"/>
      <point x="741" y="414" type="curve" smooth="yes"/>
      <point x="832" y="414"/>
      <point x="900" y="362"/>
    </contour>
    <contour>
      <point x="867" y="720" type="line"/>
      <point x="518" y="346" type="line"/>
      <point x="243" y="0" type="line"/>
      <point x="107" y="0" type="line"/>
      <point x="457" y="374" type="line"/>
      <point x="732" y="720" type="line"/>
    </contour>
    <contour>
      <point x="456" y="570" type="curve" smooth="yes"/>
      <point x="456" y="447"/>
      <point x="370" y="306"/>
      <point x="233" y="306" type="curve" smooth="yes"/>
      <point x="142" y="306"/>
      <point x="74" y="358"/>
      <point x="74" y="463" type="curve" smooth="yes"/>
      <point x="74" y="586"/>
      <point x="160" y="727"/>
      <point x="297" y="727" type="curve" smooth="yes"/>
      <point x="388" y="727"/>
      <point x="456" y="675"/>
    </contour>
    <contour>
      <point x="792" y="253" type="curve" smooth="yes"/>
      <point x="792" y="300"/>
      <point x="770" y="328"/>
      <point x="735" y="328" type="curve" smooth="yes"/>
      <point x="665" y="328"/>
      <point x="628" y="219"/>
      <point x="628" y="154" type="curve" smooth="yes"/>
      <point x="628" y="107"/>
      <point x="650" y="79"/>
      <point x="685" y="79" type="curve" smooth="yes"/>
      <point x="754" y="79"/>
      <point x="792" y="188"/>
    </contour>
    <contour>
      <point x="347" y="566" type="curve" smooth="yes"/>
      <point x="347" y="613"/>
      <point x="325" y="641"/>
      <point x="290" y="641" type="curve" smooth="yes"/>
      <point x="221" y="641"/>
      <point x="183" y="532"/>
      <point x="183" y="467" type="curve" smooth="yes"/>
      <point x="183" y="420"/>
      <point x="205" y="392"/>
      <point x="240" y="392" type="curve" smooth="yes"/>
      <point x="310" y="392"/>
      <point x="347" y="501"/>
    </contour>
  </outline>
</glyph>
<glyph name="quotesingle" format="1">
  <advance width="236"/>
  <unicode hex="0027"/>
  <outline>
    <contour>
      <point x="295" y="720" type="line"/>
      <point x="186" y="440" type="line"/>
      <point x="104" y="440" type="line"/>
      <point x="135" y="720" type="line"/>
    </contour>
  </outline>
</glyph>
<glyph name="parenright" format="1">
  <advance width="373"/>
  <unicode hex="0029"/>
  <outline>
    <contour>
      <point x="352" y="410" type="curve" smooth="yes"/>
      <point x="352" y="212"/>
      <point x="246" y="33"/>
      <point x="58" y="-95" type="curve"/>
      <point x="-85" y="-95" type="line"/>
      <point x="124" y="74"/>
      <point x="196" y="247"/>
      <point x="196" y="426" type="curve" smooth="yes"/>
      <point x="196" y="546"/>
      <point x="174" y="631"/>
      <point x="123" y="735" type="curve"/>
      <point x="244" y="735" type="line"/>
      <point x="305" y="648"/>
      <point x="352" y="540"/>
    </contour>
  </outline>
</glyph>
<glyph name="asterisk" format="1">
  <advance width="440"/>
  <unicode hex="002A"/>
  <outline>
    <contour>
      <point x="480" y="537" type="line"/>
      <point x="329" y="528" type="line"/>
      <point x="450" y="431" type="line"/>
      <point x="345" y="355" type="line"/>
      <point x="286" y="502" type="line"/>
      <point x="227" y="355" type="line"/>
      <point x="122" y="431" type="line"/>
      <point x="243" y="528" type="line"/>
      <point x="91" y="537" type="line"/>
      <point x="131" y="659" type="line"/>
      <point x="261" y="572" type="line"/>
      <point x="221" y="720" type="line"/>
      <point x="350" y="720" type="line"/>
      <point x="310" y="572" type="line"/>
      <point x="441" y="659" type="line"/>
    </contour>
  </outline>
</glyph>
<glyph name="comma" format="1">
  <advance width="236"/>
  <unicode hex="002C"/>
  <outline>
    <contour>
      <point x="193" y="165" type="line"/>
      <point x="18" y="-115" type="line"/>
      <point x="-69" y="-115" type="line"/>
      <point x="28" y="165" type="line"/>
    </contour>
  </outline>
</glyph>
<glyph name="hyphen" format="1">
  <advance width="338"/>
  <unicode hex="002D"/>
  <unicode hex="2010"/>
  <unicode hex="2011"/>
  <outline>
    <contour>
      <point x="326" y="353" type="line"/>
      <point x="294" y="223" type="line"/>
      <point x="22" y="223" type="line"/>
      <point x="55" y="353" type="line"/>
    </contour>
  </outline>
</glyph>
<glyph name="one" format="1">
  <advance width="452"/>
  <unicode hex="0031"/>
  <outline>
    <contour>
      <point x="430" y="720" type="line"/>
      <point x="275" y="96" type="line"/>
      <point x="392" y="96" type="line"/>
      <point x="368" y="0" type="line"/>
      <point x="-25" y="0" type="line"/>
      <point x="-1" y="96" type="line"/>
      <point x="118" y="96" type="line"/>
      <point x="249" y="624" type="line"/>
      <point x="118" y="624" type="line"/>
      <point x="142" y="720" type="line"/>
    </contour>
  </outline>
</glyph>
<glyph name="two" format="1">
  <advance width="563"/>
  <unicode hex="0032"/>
  <outline>
    <contour>
      <point x="582" y="558" type="curve" smooth="yes"/>
      <point x="582" y="443"/>
      <point x="517" y="369"/>
      <point x="351" y="271" type="curve" smooth="yes"/>
      <point x="250" y="212"/>
      <point x="196" y="165"/>
      <point x="168" y="114" type="curve"/>
      <point x="490" y="114" type="line"/>
      <point x="462" y="0" type="line"/>
      <point x="-26" y="0" type="line"/>
      <point x="-3" y="94" type="line"/>
      <point x="52" y="193"/>
      <point x="133" y="271"/>
      <point x="269" y="354" type="curve" smooth="yes"/>
      <point x="388" y="426"/>
      <point x="433" y="475"/>
      <point x="433" y="542" type="curve" smooth="yes"/>
      <point x="433" y="586"/>
      <point x="406" y="616"/>
      <point x="356" y="616" type="curve" smooth="yes"/>
      <point x="308" y="616"/>
      <point x="262" y="583"/>
      <point x="204" y="507" type="curve"/>
      <point x="94" y="575" type="line"/>
      <point x="176" y="681"/>
      <point x="261" y="732"/>
      <point x="381" y="732" type="curve" smooth="yes"/>
      <point x="509" y="732"/>
      <point x="582" y="662"/>
    </contour>
  </outline>
</glyph>
<glyph name="four" format="1">
  <advance width="614"/>
  <unicode hex="0034"/>
  <outline>
    <contour>
      <point x="611" y="720" type="line"/>
      <point x="498" y="265" type="line"/>
      <point x="592" y="265" type="line"/>
      <point x="570" y="177" type="line"/>
      <point x="475" y="177" type="line"/>
      <point x="431" y="0" type="line"/>
      <point x="282" y="0" type="line"/>
      <point x="326" y="177" type="line"/>
      <point x="4" y="177" type="line"/>
      <point x="34" y="297" type="line"/>
      <point x="417" y="720" type="line"/>
    </contour>
    <contour>
      <point x="430" y="591" type="line"/>
      <point x="421" y="591" type="line"/>
      <point x="133" y="274" type="line"/>
      <point x="132" y="265" type="line"/>
      <point x="349" y="265" type="line"/>
    </contour>
  </outline>
</glyph>
<glyph name="six" format="1">
  <advance width="595"/>
  <unicode hex="0036"/>
  <outline>
    <contour>
      <point x="596" y="720" type="line"/>
      <point x="405" y="614"/>
      <point x="265" y="495"/>
      <point x="213" y="402" type="curve"/>
      <point x="219" y="402" type="line"/>
      <point x="269" y="444"/>
      <point x="323" y="467"/>
      <point x="391" y="467" type="curve" smooth="yes"/>
      <point x="496" y="467"/>
      <point x="570" y="406"/>
      <point x="570" y="284" type="curve" smooth="yes"/>
      <point x="570" y="123"/>
      <point x="444" y="-12"/>
      <point x="269" y="-12" type="curve" smooth="yes"/>
      <point x="128" y="-12"/>
      <point x="33" y="53"/>
      <point x="33" y="201" type="curve" smooth="yes"/>
      <point x="33" y="409"/>
      <point x="176" y="587"/>
      <point x="381" y="720" type="curve"/>
    </contour>
    <contour>
      <point x="415" y="262" type="curve" smooth="yes"/>
      <point x="415" y="326"/>
      <point x="380" y="363"/>
      <point x="320" y="363" type="curve" smooth="yes"/>
      <point x="242" y="363"/>
      <point x="179" y="287"/>
      <point x="179" y="194" type="curve" smooth="yes"/>
      <point x="179" y="131"/>
      <point x="216" y="93"/>
      <point x="275" y="93" type="curve" smooth="yes"/>
      <point x="354" y="93"/>
      <point x="415" y="172"/>
    </contour>
  </outline>
</glyph>
<glyph name="seven" format="1">
  <advance width="541"/>
  <unicode hex="0037"/>
  <outline>
    <contour>
      <point x="635" y="720" type="line"/>
      <point x="613" y="631" type="line"/>
      <point x="445" y="461"/>
      <point x="287" y="224"/>
      <point x="191" y="0" type="curve"/>
      <point x="23" y="0" type="line"/>
      <point x="119" y="206"/>
      <point x="269" y="426"/>
      <point x="435" y="596" type="curve"/>
      <point x="99" y="596" type="line"/>
      <point x="130" y="720" type="line"/>
    </contour>
  </outline>
</glyph>
<glyph name="nine" format="1">
  <advance width="595"/>
  <unicode hex="0039"/>
  <outline>
    <contour>
      <point x="609" y="519" type="curve" smooth="yes"/>
      <point x="609" y="311"/>
      <point x="466" y="133"/>
      <point x="261" y="0" type="curve"/>
      <point x="46" y="0" type="line"/>
      <point x="237" y="106"/>
      <point x="377" y="225"/>
      <point x="429" y="318" type="curve"/>
      <point x="423" y="318" type="line"/>
      <point x="372" y="276"/>
      <point x="318" y="253"/>
      <point x="251" y="253" type="curve" smooth="yes"/>
      <point x="145" y="253"/>
      <point x="72" y="314"/>
      <point x="72" y="436" type="curve" smooth="yes"/>
      <point x="72" y="597"/>
      <point x="198" y="732"/>
      <point x="373" y="732" type="curve" smooth="yes"/>
      <point x="513" y="732"/>
      <point x="609" y="667"/>
    </contour>
    <contour>
      <point x="462" y="526" type="curve" smooth="yes"/>
      <point x="462" y="589"/>
      <point x="425" y="627"/>
      <point x="366" y="627" type="curve" smooth="yes"/>
      <point x="287" y="627"/>
      <point x="227" y="548"/>
      <point x="227" y="458" type="curve" smooth="yes"/>
      <point x="227" y="394"/>
      <point x="261" y="357"/>
      <point x="321" y="357" type="curve" smooth="yes"/>
      <point x="399" y="357"/>
      <point x="462" y="433"/>
    </contour>
  </outline>
</glyph>
<glyph name="equal" format="1">
  <advance width="600"/>
  <unicode hex="003D"/>
  <outline>
    <contour>
      <point x="568" y="421" type="line"/>
      <point x="77" y="421" type="line"/>
      <point x="77" y="548" type="line"/>
      <point x="568" y="548" type="line"/>
    </contour>
    <contour>
      <point x="568" y="162" type="line"/>
      <point x="77" y="162" type="line"/>
      <point x="77" y="289" type="line"/>
      <point x="568" y="289" type="line"/>
    </contour>
  </outline>
</glyph>
<glyph name="greater" format="1">
  <advance width="600"/>
  <unicode hex="003E"/>
  <outline>
    <contour>
      <point x="581" y="295" type="line"/>
      <point x="69" y="75" type="line"/>
      <point x="69" y="208" type="line"/>
      <point x="437" y="355" type="line"/>
      <point x="69" y="502" type="line"/>
      <point x="69" y="635" type="line"/>
      <point x="581" y="415" type="line"/>
    </contour>
  </outline>
</glyph>
<glyph name="at" format="1">
  <advance width="970"/>
  <unicode hex="0040"/>
  <outline>
    <contour>
      <point x="932" y="333" type="curve" smooth="yes"/>
      <point x="932" y="142"/>
      <point x="818" y="25"/>
      <point x="686" y="25" type="curve" smooth="yes"/>
      <point x="600" y="25"/>
      <point x="557" y="73"/>
      <point x="546" y="141" type="curve"/>
      <point x="542" y="141" type="line"/>
      <point x="499" y="69"/>
      <point x="440" y="25"/>
      <point x="377" y="25" type="curve" smooth="yes"/>
      <point x="298" y="25"/>
      <point x="253" y="85"/>
      <point x="253" y="190" type="curve" smooth="yes"/>
      <point x="253" y="338"/>
      <point x="320" y="519"/>
      <point x="443" y="519" type="curve" smooth="yes"/>
      <point x="513" y="519"/>
      <point x="546" y="476"/>
      <point x="569" y="414" type="curve"/>
      <point x="573" y="414" type="line"/>
      <point x="591" y="519" type="line"/>
      <point x="724" y="498" type="line"/>
      <point x="667" y="180" type="line" smooth="yes"/>
      <point x="656" y="119"/>
      <point x="676" y="76"/>
      <point x="729" y="76" type="curve" smooth="yes"/>
      <point x="812" y="76"/>
      <point x="887" y="185"/>
      <point x="887" y="331" type="curve" smooth="yes"/>
      <point x="887" y="554"/>
      <point x="730" y="694"/>
      <point x="505" y="694" type="curve" smooth="yes"/>
      <point x="271" y="694"/>
      <point x="89" y="504"/>
      <point x="89" y="266" type="curve" smooth="yes"/>
      <point x="89" y="15"/>
      <point x="251" y="-154"/>
      <point x="496" y="-154" type="curve" smooth="yes"/>
      <point x="616" y="-154"/>
      <point x="701" y="-131"/>
      <point x="790" y="-82" type="curve"/>
      <point x="809" y="-114" type="line"/>
      <point x="716" y="-164"/>
      <point x="624" y="-192"/>
      <point x="494" y="-192" type="curve" smooth="yes"/>
      <point x="224" y="-192"/>
      <point x="44" y="-10"/>
      <point x="44" y="265" type="curve" smooth="yes"/>
      <point x="44" y="529"/>
      <point x="254" y="732"/>
      <point x="508" y="732" type="curve" smooth="yes"/>
      <point x="747" y="732"/>
      <point x="932" y="574"/>
    </contour>
    <contour>
      <point x="555" y="334" type="curve" smooth="yes"/>
      <point x="555" y="386"/>
      <point x="533" y="427"/>
      <point x="494" y="427" type="curve" smooth="yes"/>
      <point x="436" y="427"/>
      <point x="389" y="318"/>
      <point x="389" y="194" type="curve" smooth="yes"/>
      <point x="389" y="140"/>
      <point x="408" y="107"/>
      <point x="445" y="107" type="curve" smooth="yes"/>
      <point x="502" y="107"/>
      <point x="555" y="222"/>
    </contour>
  </outline>
</glyph>
<glyph name="A" format="1">
  <advance width="683"/>
  <unicode hex="0041"/>
  <outline>
    <contour>
      <point x="600" y="0" type="line"/>
      <point x="442" y="0" type="line"/>
      <point x="438" y="163" type="line"/>
      <point x="197" y="163" type="line"/>
      <point x="113" y="0" type="line"/>
      <point x="-51" y="0" type="line"/>
      <point x="352" y="723" type="line"/>
      <point x="559" y="723" type="line"/>
    </contour>
    <contour>
      <point x="440" y="266" type="line"/>
      <point x="431" y="606" type="line"/>
      <point x="426" y="606" type="line"/>
      <point x="247" y="266" type="line"/>
    </contour>
  </outline>
</glyph>
<glyph name="B" format="1">
  <advance width="621"/>
  <unicode hex="0042"/>
  <outline>
    <contour>
      <point x="640" y="562" type="curve" smooth="yes"/>
      <point x="640" y="465"/>
      <point x="564" y="404"/>
      <point x="471" y="378" type="curve"/>
      <point x="471" y="374" type="line"/>
      <point x="537" y="349"/>
      <point x="581" y="306"/>
      <point x="581" y="229" type="curve" smooth="yes"/>
      <point x="581" y="93"/>
      <point x="469" y="0"/>
      <point x="277" y="0" type="curve" smooth="yes"/>
      <point x="-8" y="0" type="line"/>
      <point x="171" y="720" type="line"/>
      <point x="418" y="720" type="line" smooth="yes"/>
      <point x="567" y="720"/>
      <point x="640" y="660"/>
    </contour>
    <contour>
      <point x="485" y="534" type="curve" smooth="yes"/>
      <point x="485" y="582"/>
      <point x="450" y="607"/>
      <point x="385" y="607" type="curve" smooth="yes"/>
      <point x="296" y="607" type="line"/>
      <point x="252" y="429" type="line"/>
      <point x="345" y="429" type="line" smooth="yes"/>
      <point x="429" y="429"/>
      <point x="485" y="469"/>
    </contour>
    <contour>
      <point x="435" y="237" type="curve" smooth="yes"/>
      <point x="435" y="292"/>
      <point x="398" y="327"/>
      <point x="315" y="327" type="curve" smooth="yes"/>
      <point x="227" y="327" type="line"/>
      <point x="173" y="113" type="line"/>
      <point x="272" y="113" type="line" smooth="yes"/>
      <point x="373" y="113"/>
      <point x="435" y="158"/>
    </contour>
  </outline>
</glyph>
<glyph name="C" format="1">
  <advance width="605"/>
  <unicode hex="0043"/>
  <outline>
    <contour>
      <point x="627" y="483" type="curve"/>
      <point x="470" y="454" type="line"/>
      <point x="479" y="562"/>
      <point x="455" y="611"/>
      <point x="392" y="611" type="curve" smooth="yes"/>
      <point x="322" y="611"/>
      <point x="271" y="525"/>
      <point x="234" y="391" type="curve" smooth="yes"/>
      <point x="215" y="320"/>
      <point x="207" y="266"/>
      <point x="207" y="225" type="curve" smooth="yes"/>
      <point x="207" y="222" type="line" smooth="yes"/>
      <point x="207" y="157"/>
      <point x="236" y="109"/>
      <point x="291" y="109" type="curve" smooth="yes"/>
      <point x="349" y="109"/>
      <point x="387" y="154"/>
      <point x="427" y="254" type="curve"/>
      <point x="568" y="211" type="line"/>
      <point x="504" y="60"/>
      <point x="422" y="-12"/>
      <point x="278" y="-12" type="curve" smooth="yes"/>
      <point x="137" y="-12"/>
      <point x="47" y="75"/>
      <point x="47" y="227" type="curve" smooth="yes"/>
      <point x="47" y="231" type="line" smooth="yes"/>
      <point x="47" y="269"/>
      <point x="53" y="327"/>
      <point x="63" y="372" type="curve" smooth="yes"/>
      <point x="115" y="604"/>
      <point x="226" y="732"/>
      <point x="406" y="732" type="curve" smooth="yes"/>
      <point x="570" y="732"/>
      <point x="639" y="633"/>
    </contour>
  </outline>
</glyph>
<glyph name="F" format="1">
  <advance width="530"/>
  <unicode hex="0046"/>
  <outline>
    <contour>
      <point x="623" y="720" type="line"/>
      <point x="592" y="596" type="line"/>
      <point x="300" y="596" type="line"/>
      <point x="254" y="412" type="line"/>
      <point x="462" y="412" type="line"/>
      <point x="432" y="292" type="line"/>
      <point x="224" y="292" type="line"/>
      <point x="152" y="0" type="line"/>
      <point x="-8" y="0" type="line"/>
      <point x="171" y="720" type="line"/>
    </contour>
  </outline>
</glyph>
<glyph name="G" format="1">
  <advance width="646"/>
  <unicode hex="0047"/>
  <outline>
    <contour>
      <point x="635" y="500" type="curve"/>
      <point x="477" y="470" type="line"/>
      <point x="480" y="564"/>
      <point x="458" y="611"/>
      <point x="396" y="611" type="curve" smooth="yes"/>
      <point x="321" y="611"/>
      <point x="271" y="525"/>
      <point x="234" y="391" type="curve" smooth="yes"/>
      <point x="215" y="320"/>
      <point x="207" y="265"/>
      <point x="207" y="226" type="curve" smooth="yes"/>
      <point x="207" y="222" type="line" smooth="yes"/>
      <point x="207" y="157"/>
      <point x="237" y="109"/>
      <point x="293" y="109" type="curve" smooth="yes"/>
      <point x="350" y="109"/>
      <point x="402" y="160"/>
      <point x="442" y="286" type="curve"/>
      <point x="328" y="286" type="line"/>
      <point x="344" y="348" type="line"/>
      <point x="620" y="348" type="line"/>
      <point x="532" y="-2" type="line"/>
      <point x="471" y="-2" type="line"/>
      <point x="487" y="141" type="line"/>
      <point x="482" y="141" type="line"/>
      <point x="426" y="44"/>
      <point x="362" y="-12"/>
      <point x="267" y="-12" type="curve" smooth="yes"/>
      <point x="132" y="-12"/>
      <point x="47" y="76"/>
      <point x="47" y="227" type="curve" smooth="yes"/>
      <point x="47" y="231" type="line" smooth="yes"/>
      <point x="47" y="269"/>
      <point x="53" y="327"/>
      <point x="63" y="372" type="curve" smooth="yes"/>
      <point x="115" y="604"/>
      <point x="225" y="732"/>
      <point x="409" y="732" type="curve" smooth="yes"/>
      <point x="574" y="732"/>
      <point x="640" y="636"/>
    </contour>
  </outline>
</glyph>
<glyph name="J" format="1">
  <advance width="536"/>
  <unicode hex="004A"/>
  <outline>
    <contour>
      <point x="596" y="720" type="line"/>
      <point x="471" y="217" type="line" smooth="yes"/>
      <point x="433" y="63"/>
      <point x="349" y="-12"/>
      <point x="201" y="-12" type="curve" smooth="yes"/>
      <point x="76" y="-12"/>
      <point x="-4" y="45"/>
      <point x="-4" y="151" type="curve" smooth="yes"/>
      <point x="-4" y="172"/>
      <point x="-2" y="191"/>
      <point x="3" y="216" type="curve"/>
      <point x="159" y="243" type="line"/>
      <point x="153" y="218"/>
      <point x="150" y="197"/>
      <point x="150" y="179" type="curve" smooth="yes"/>
      <point x="150" y="134"/>
      <point x="172" y="114"/>
      <point x="214" y="114" type="curve" smooth="yes"/>
      <point x="262" y="114"/>
      <point x="295" y="149"/>
      <point x="313" y="223" type="curve" smooth="yes"/>
      <point x="436" y="720" type="line"/>
    </contour>
  </outline>
</glyph>
<glyph name="K" format="1">
  <advance width="646"/>
  <unicode hex="004B"/>
  <outline>
    <contour>
      <point x="745" y="720" type="line"/>
      <point x="431" y="388" type="line"/>
      <point x="582" y="0" type="line"/>
      <point x="412" y="0" type="line"/>
      <point x="267" y="389" type="line"/>
      <point x="267" y="394" type="line"/>
      <point x="566" y="720" type="line"/>
    </contour>
    <contour>
      <point x="331" y="720" type="line"/>
      <point x="152" y="0" type="line"/>
      <point x="-8" y="0" type="line"/>
      <point x="171" y="720" type="line"/>
    </contour>
  </outline>
</glyph>
<glyph name="W" format="1">
  <advance width="990"/>
  <unicode hex="0057"/>
  <outline>
    <contour>
      <point x="1075" y="720" type="line"/>
      <point x="717" y="-5" type="line"/>
      <point x="547" y="-5" type="line"/>
      <point x="555" y="517" type="line"/>
      <point x="549" y="517" type="line"/>
      <point x="299" y="-5" type="line"/>
      <point x="128" y="-5" type="line"/>
      <point x="132" y="720" type="line"/>
      <point x="293" y="720" type="line"/>
      <point x="263" y="189" type="line"/>
      <point x="269" y="189" type="line"/>
      <point x="516" y="720" type="line"/>
      <point x="685" y="720" type="line"/>
      <point x="669" y="189" type="line"/>
      <point x="674" y="189" type="line"/>
      <point x="909" y="720" type="line"/>
    </contour>
  </outline>
</glyph>
<glyph name="X" format="1">
  <advance width="644"/>
  <unicode hex="0058"/>
  <outline>
    <contour>
      <point x="729" y="720" type="line"/>
      <point x="432" y="373" type="line"/>
      <point x="562" y="0" type="line"/>
      <point x="391" y="0" type="line"/>
      <point x="313" y="242" type="line"/>
      <point x="114" y="0" type="line"/>
      <point x="-52" y="0" type="line"/>
      <point x="264" y="369" type="line"/>
      <point x="142" y="720" type="line"/>
      <point x="313" y="720" type="line"/>
      <point x="383" y="500" type="line"/>
      <point x="563" y="720" type="line"/>
    </contour>
  </outline>
</glyph>
<glyph name="Y" format="1">
  <advance width="639"/>
  <unicode hex="0059"/>
  <outline>
    <contour>
      <point x="744" y="720" type="line"/>
      <point x="404" y="284" type="line"/>
      <point x="333" y="0" type="line"/>
      <point x="173" y="0" type="line"/>
      <point x="243" y="281" type="line"/>
      <point x="122" y="720" type="line"/>
      <point x="293" y="720" type="line"/>
      <point x="365" y="425" type="line"/>
      <point x="585" y="720" type="line"/>
    </contour>
  </outline>
</glyph>
<glyph name="Z" format="1">
  <advance width="564"/>
  <unicode hex="005A"/>
  <outline>
    <contour>
      <point x="646" y="720" type="line"/>
      <point x="619" y="611" type="line"/>
      <point x="177" y="124" type="line"/>
      <point x="498" y="124" type="line"/>
      <point x="466" y="0" type="line"/>
      <point x="-36" y="0" type="line"/>
      <point x="-9" y="109" type="line"/>
      <point x="433" y="596" type="line"/>
      <point x="129" y="596" type="line"/>
      <point x="161" y="720" type="line"/>
    </contour>
  </outline>
</glyph>
<glyph name="bracketright" format="1">
  <advance width="389"/>
  <unicode hex="005D"/>
  <outline>
    <contour>
      <point x="445" y="730" type="line"/>
      <point x="241" y="-90" type="line"/>
      <point x="-64" y="-80" type="line"/>
      <point x="-49" y="-19" type="line"/>
      <point x="116" y="-25" type="line"/>
      <point x="288" y="665" type="line"/>
      <point x="121" y="659" type="line"/>
      <point x="136" y="720" type="line"/>
    </contour>
  </outline>
</glyph>
<glyph name="c" format="1">
  <advance width="486"/>
  <unicode hex="0063"/>
  <outline>
    <contour>
      <point x="488" y="359" type="curve"/>
      <point x="347" y="342" type="line"/>
      <point x="351" y="411"/>
      <point x="341" y="445"/>
      <point x="300" y="445" type="curve" smooth="yes"/>
      <point x="248" y="445"/>
      <point x="213" y="382"/>
      <point x="185" y="276" type="curve" smooth="yes"/>
      <point x="173" y="233"/>
      <point x="167" y="193"/>
      <point x="167" y="163" type="curve" smooth="yes"/>
      <point x="167" y="161" type="line" smooth="yes"/>
      <point x="167" y="113"/>
      <point x="189" y="87"/>
      <point x="223" y="87" type="curve" smooth="yes"/>
      <point x="256" y="87"/>
      <point x="283" y="114"/>
      <point x="315" y="175" type="curve"/>
      <point x="442" y="138" type="line"/>
      <point x="394" y="47"/>
      <point x="325" y="-10"/>
      <point x="214" y="-10" type="curve" smooth="yes"/>
      <point x="95" y="-10"/>
      <point x="20" y="54"/>
      <point x="20" y="179" type="curve" smooth="yes"/>
      <point x="20" y="181" type="line" smooth="yes"/>
      <point x="20" y="211"/>
      <point x="26" y="252"/>
      <point x="35" y="289" type="curve" smooth="yes"/>
      <point x="75" y="445"/>
      <point x="163" y="542"/>
      <point x="313" y="542" type="curve" smooth="yes"/>
      <point x="444" y="542"/>
      <point x="492" y="471"/>
    </contour>
  </outline>
</glyph>
<glyph name="d" format="1">
  <advance width="545"/>
  <unicode hex="0064"/>
  <outline>
    <contour>
      <point x="616" y="757" type="line"/>
      <point x="432" y="15" type="line"/>
      <point x="275" y="-8" type="line"/>
      <point x="305" y="110" type="line"/>
      <point x="300" y="110" type="line"/>
      <point x="230" y="26"/>
      <point x="183" y="-8"/>
      <point x="128" y="-8" type="curve" smooth="yes"/>
      <point x="56" y="-8"/>
      <point x="18" y="50"/>
      <point x="18" y="139" type="curve" smooth="yes"/>
      <point x="18" y="141" type="line" smooth="yes"/>
      <point x="18" y="344"/>
      <point x="131" y="540"/>
      <point x="250" y="540" type="curve" smooth="yes"/>
      <point x="312" y="540"/>
      <point x="341" y="512"/>
      <point x="382" y="440" type="curve"/>
      <point x="387" y="440" type="line"/>
      <point x="460" y="733" type="line"/>
    </contour>
    <contour>
      <point x="361" y="356" type="curve" smooth="yes"/>
      <point x="361" y="412"/>
      <point x="338" y="449"/>
      <point x="303" y="449" type="curve" smooth="yes"/>
      <point x="234" y="449"/>
      <point x="168" y="285"/>
      <point x="168" y="174" type="curve" smooth="yes"/>
      <point x="168" y="122"/>
      <point x="180" y="94"/>
      <point x="216" y="94" type="curve" smooth="yes"/>
      <point x="284" y="94"/>
      <point x="361" y="275"/>
    </contour>
  </outline>
</glyph>
<glyph name="f" format="1">
  <advance width="385"/>
  <unicode hex="0066"/>
  <outline>
    <contour>
      <point x="523" y="741" type="curve"/>
      <point x="498" y="640" type="line"/>
      <point x="475" y="650"/>
      <point x="453" y="657"/>
      <point x="418" y="657" type="curve" smooth="yes"/>
      <point x="374" y="657"/>
      <point x="346" y="638"/>
      <point x="333" y="585" type="curve" smooth="yes"/>
      <point x="319" y="529" type="line"/>
      <point x="445" y="529" type="line"/>
      <point x="420" y="428" type="line"/>
      <point x="295" y="428" type="line"/>
      <point x="188" y="0" type="line"/>
      <point x="40" y="0" type="line"/>
      <point x="147" y="428" type="line"/>
      <point x="52" y="428" type="line"/>
      <point x="77" y="529" type="line"/>
      <point x="172" y="529" type="line"/>
      <point x="190" y="602" type="line" smooth="yes"/>
      <point x="218" y="716"/>
      <point x="278" y="759"/>
      <point x="397" y="759" type="curve" smooth="yes"/>
      <point x="452" y="759"/>
      <point x="486" y="752"/>
    </contour>
  </outline>
</glyph>
<glyph name="i" format="1">
  <advance width="262"/>
  <unicode hex="0069"/>
  <outline>
    <contour>
      <point x="328" y="727" type="line"/>
      <point x="298" y="610" type="line"/>
      <point x="136" y="610" type="line"/>
      <point x="165" y="727" type="line"/>
    </contour>
    <contour>
      <point x="273" y="532" type="line"/>
      <point x="140" y="0" type="line"/>
      <point x="-10" y="0" type="line"/>
      <point x="122" y="532" type="line"/>
    </contour>
  </outline>
</glyph>
<glyph name="j" format="1">
  <advance width="262"/>
  <unicode hex="006A"/>
  <outline>
    <contour>
      <point x="328" y="727" type="line"/>
      <point x="298" y="610" type="line"/>
      <point x="136" y="610" type="line"/>
      <point x="165" y="727" type="line"/>
    </contour>
    <contour>
      <point x="273" y="532" type="line"/>
      <point x="130" y="-39" type="line" smooth="yes"/>
      <point x="101" y="-155"/>
      <point x="36" y="-190"/>
      <point x="-60" y="-190" type="curve" smooth="yes"/>
      <point x="-107" y="-190"/>
      <point x="-143" y="-183"/>
      <point x="-172" y="-173" type="curve"/>
      <point x="-150" y="-83" type="line"/>
      <point x="-131" y="-91"/>
      <point x="-113" y="-95"/>
      <point x="-94" y="-95" type="curve" smooth="yes"/>
      <point x="-54" y="-95"/>
      <point x="-29" y="-76"/>
      <point x="-17" y="-26" type="curve" smooth="yes"/>
      <point x="122" y="532" type="line"/>
    </contour>
  </outline>
</glyph>
<glyph name="p" format="1">
  <advance width="545"/>
  <unicode hex="0070"/>
  <outline>
    <contour>
      <point x="527" y="391" type="line" smooth="yes"/>
      <point x="527" y="189"/>
      <point x="414" y="-8"/>
      <point x="294" y="-8" type="curve" smooth="yes"/>
      <point x="233" y="-8"/>
      <point x="204" y="21"/>
      <point x="163" y="92" type="curve"/>
      <point x="158" y="92" type="line"/>
      <point x="88" y="-188" type="line"/>
      <point x="-63" y="-188" type="line"/>
      <point x="113" y="517" type="line"/>
      <point x="269" y="541" type="line"/>
      <point x="240" y="422" type="line"/>
      <point x="244" y="422" type="line"/>
      <point x="315" y="507"/>
      <point x="362" y="540"/>
      <point x="416" y="540" type="curve" smooth="yes"/>
      <point x="489" y="540"/>
      <point x="527" y="482"/>
      <point x="527" y="393" type="curve" smooth="yes"/>
    </contour>
    <contour>
      <point x="376" y="358" type="curve" smooth="yes"/>
      <point x="376" y="410"/>
      <point x="364" y="438"/>
      <point x="328" y="438" type="curve" smooth="yes"/>
      <point x="261" y="438"/>
      <point x="183" y="258"/>
      <point x="183" y="176" type="curve" smooth="yes"/>
      <point x="183" y="120"/>
      <point x="207" y="83"/>
      <point x="242" y="83" type="curve" smooth="yes"/>
      <point x="311" y="83"/>
      <point x="376" y="247"/>
    </contour>
  </outline>
</glyph>
<glyph name="r" format="1">
  <advance width="414"/>
  <unicode hex="0072"/>
  <outline>
    <contour>
      <point x="470" y="541" type="curve"/>
      <point x="432" y="389" type="line"/>
      <point x="352" y="382"/>
      <point x="283" y="345"/>
      <point x="205" y="283" type="curve"/>
      <point x="135" y="0" type="line"/>
      <point x="-16" y="0" type="line"/>
      <point x="113" y="517" type="line"/>
      <point x="269" y="541" type="line"/>
      <point x="219" y="339" type="line"/>
      <point x="224" y="339" type="line"/>
      <point x="329" y="484"/>
      <point x="395" y="538"/>
    </contour>
  </outline>
</glyph>
<glyph name="s" format="1">
  <advance width="448"/>
  <unicode hex="0073"/>
  <outline>
    <contour>
      <point x="459" y="454" type="curve"/>
      <point x="369" y="385" type="line"/>
      <point x="333" y="428"/>
      <point x="297" y="451"/>
      <point x="258" y="451" type="curve" smooth="yes"/>
      <point x="218" y="451"/>
      <point x="194" y="426"/>
      <point x="194" y="396" type="curve" smooth="yes"/>
      <point x="194" y="368"/>
      <point x="207" y="351"/>
      <point x="275" y="324" type="curve" smooth="yes"/>
      <point x="371" y="285"/>
      <point x="406" y="240"/>
      <point x="406" y="171" type="curve" smooth="yes"/>
      <point x="406" y="62"/>
      <point x="320" y="-10"/>
      <point x="192" y="-10" type="curve" smooth="yes"/>
      <point x="90" y="-10"/>
      <point x="20" y="28"/>
      <point x="-26" y="84" type="curve"/>
      <point x="59" y="159" type="line"/>
      <point x="97" y="110"/>
      <point x="150" y="82"/>
      <point x="200" y="82" type="curve" smooth="yes"/>
      <point x="247" y="82"/>
      <point x="274" y="106"/>
      <point x="274" y="141" type="curve" smooth="yes"/>
      <point x="274" y="169"/>
      <point x="259" y="183"/>
      <point x="186" y="214" type="curve" smooth="yes"/>
      <point x="102" y="249"/>
      <point x="61" y="296"/>
      <point x="61" y="372" type="curve" smooth="yes"/>
      <point x="61" y="465"/>
      <point x="142" y="542"/>
      <point x="267" y="542" type="curve" smooth="yes"/>
      <point x="358" y="542"/>
      <point x="416" y="508"/>
    </contour>
  </outline>
</glyph>
<glyph name="u" format="1">
  <advance width="537"/>
  <unicode hex="0075"/>
  <outline>
    <contour>
      <point x="553" y="532" type="line"/>
      <point x="424" y="15" type="line"/>
      <point x="268" y="-8" type="line"/>
      <point x="300" y="120" type="line"/>
      <point x="295" y="120" type="line"/>
      <point x="221" y="33"/>
      <point x="169" y="-6"/>
      <point x="107" y="-6" type="curve" smooth="yes"/>
      <point x="42" y="-6"/>
      <point x="9" y="30"/>
      <point x="9" y="92" type="curve" smooth="yes"/>
      <point x="9" y="109"/>
      <point x="11" y="131"/>
      <point x="17" y="154" type="curve" smooth="yes"/>
      <point x="111" y="532" type="line"/>
      <point x="262" y="532" type="line"/>
      <point x="176" y="189" type="line" smooth="yes"/>
      <point x="173" y="175"/>
      <point x="171" y="160"/>
      <point x="171" y="148" type="curve" smooth="yes"/>
      <point x="171" y="122"/>
      <point x="185" y="106"/>
      <point x="215" y="106" type="curve" smooth="yes"/>
      <point x="241" y="106"/>
      <point x="272" y="126"/>
      <point x="313" y="172" type="curve"/>
      <point x="402" y="532" type="line"/>
    </contour>
  </outline>
</glyph>
<glyph name="w" format="1">
  <advance width="818"/>
  <unicode hex="0077"/>
  <outline>
    <contour>
      <point x="869" y="532" type="line"/>
      <point x="586" y="-4" type="line"/>
      <point x="430" y="-4" type="line"/>
      <point x="432" y="352" type="line"/>
      <point x="255" y="-4" type="line"/>
      <point x="97" y="-4" type="line"/>
      <point x="82" y="532" type="line"/>
      <point x="232" y="532" type="line"/>
      <point x="218" y="160" type="line"/>
      <point x="401" y="532" type="line"/>
      <point x="548" y="532" type="line"/>
      <point x="544" y="160" type="line"/>
      <point x="717" y="532" type="line"/>
    </contour>
  </outline>
</glyph>
<glyph name="x" format="1">
  <advance width="529"/>
  <unicode hex="0078"/>
  <outline>
    <contour>
      <point x="574" y="532" type="line"/>
      <point x="341" y="272" type="line"/>
      <point x="447" y="0" type="line"/>
      <point x="293" y="0" type="line"/>
      <point x="237" y="162" type="line"/>
      <point x="103" y="0" type="line"/>
      <point x="-52" y="0" type="line"/>
      <point x="190" y="269" type="line"/>
      <point x="86" y="532" type="line"/>
      <point x="241" y="532" type="line"/>
      <point x="292" y="377" type="line"/>
      <point x="420" y="532" type="line"/>
    </contour>
  </outline>
</glyph>
<glyph name="y" format="1">
  <advance width="530"/>
  <unicode hex="0079"/>
  <outline>
    <contour>
      <point x="583" y="532" type="line"/>
      <point x="244" y="-66" type="line" smooth="yes"/>
      <point x="188" y="-164"/>
      <point x="135" y="-192"/>
      <point x="47" y="-192" type="curve" smooth="yes"/>
      <point x="-11" y="-192"/>
      <point x="-49" y="-182"/>
      <point x="-86" y="-166" type="curve"/>
      <point x="-62" y="-68" type="line"/>
      <point x="-32" y="-68" type="line"/>
      <point x="-19" y="-96"/>
      <point x="-2" y="-113"/>
      <point x="33" y="-113" type="curve" smooth="yes"/>
      <point x="59" y="-113"/>
      <point x="83" y="-102"/>
      <point x="103" y="-69" type="curve" smooth="yes"/>
      <point x="125" y="-33" type="line"/>
      <point x="79" y="532" type="line"/>
      <point x="229" y="532" type="line"/>
      <point x="233" y="142" type="line"/>
      <point x="431" y="532" type="line"/>
    </contour>
  </outline>
</glyph>
<glyph name="z" format="1">
  <advance width="455"/>
  <unicode hex="007A"/>
  <outline>
    <contour>
      <point x="497" y="531" type="line"/>
      <point x="475" y="442" type="line"/>
      <point x="155" y="101" type="line"/>
      <point x="390" y="101" type="line"/>
      <point x="364" y="0" type="line"/>
      <point x="-41" y="0" type="line"/>
      <point x="-18" y="89" type="line"/>
      <point x="301" y="430" type="line"/>
      <point x="81" y="430" type="line"/>
      <point x="107" y="531" type="line"/>
    </contour>
  </outline>
</glyph>
<glyph name="braceleft" format="1">
  <advance width="442"/>
  <unicode hex="007B"/>
  <outline>
    <contour>
      <point x="530" y="720" type="line"/>
      <point x="515" y="659" type="line"/>
      <point x="440" y="659" type="line" smooth="yes"/>
      <point x="386" y="659"/>
      <point x="359" y="639"/>
      <point x="348" y="596" type="curve" smooth="yes"/>
      <point x="337" y="555"/>
      <point x="345" y="496"/>
      <point x="332" y="447" type="curve" smooth="yes"/>
      <point x="312" y="367"/>
      <point x="261" y="340"/>
      <point x="196" y="324" type="curve"/>
      <point x="194" y="316" type="line"/>
      <point x="250" y="297"/>
      <point x="272" y="274"/>
      <point x="272" y="228" type="curve" smooth="yes"/>
      <point x="272" y="162"/>
      <point x="209" y="78"/>
      <point x="209" y="27" type="curve" smooth="yes"/>
      <point x="209" y="-2"/>
      <point x="228" y="-19"/>
      <point x="271" y="-19" type="curve" smooth="yes"/>
      <point x="346" y="-19" type="line"/>
      <point x="330" y="-80" type="line"/>
      <point x="188" y="-80" type="line" smooth="yes"/>
      <point x="99" y="-80"/>
      <point x="66" y="-46"/>
      <point x="66" y="8" type="curve" smooth="yes"/>
      <point x="66" y="82"/>
      <point x="131" y="158"/>
      <point x="131" y="219" type="curve" smooth="yes"/>
      <point x="131" y="265"/>
      <point x="95" y="290"/>
      <point x="20" y="290" type="curve"/>
      <point x="35" y="350" type="line"/>
      <point x="110" y="350"/>
      <point x="173" y="376"/>
      <point x="191" y="447" type="curve" smooth="yes"/>
      <point x="202" y="492"/>
      <point x="198" y="557"/>
      <point x="209" y="602" type="curve" smooth="yes"/>
      <point x="229" y="683"/>
      <point x="284" y="720"/>
      <point x="380" y="720" type="curve" smooth="yes"/>
    </contour>
  </outline>
</glyph>
<glyph name="exclamdown" format="1">
  <advance width="281"/>
  <unicode hex="00A1"/>
  <outline>
    <contour>
      <point x="315" y="644" type="curve" smooth="yes"/>
      <point x="315" y="596"/>
      <point x="279" y="561"/>
      <point x="232" y="561" type="curve" smooth="yes"/>
      <point x="184" y="561"/>
      <point x="149" y="596"/>
      <point x="149" y="644" type="curve" smooth="yes"/>
      <point x="149" y="691"/>
      <point x="184" y="727"/>
      <point x="232" y="727" type="curve" smooth="yes"/>
      <point x="279" y="727"/>
      <point x="315" y="691"/>
    </contour>
    <contour>
      <point x="241" y="485" type="line"/>
      <point x="162" y="0" type="line"/>
      <point x="-19" y="0" type="line"/>
      <point x="152" y="485" type="line"/>
    </contour>
  </outline>
</glyph>
<glyph name="cent" format="1">
  <advance width="499"/>
  <unicode hex="00A2"/>
  <outline>
    <contour>
      <point x="573" y="627" type="line"/>
      <point x="183" y="97" type="line"/>
      <point x="195" y="89"/>
      <point x="211" y="85"/>
      <point x="229" y="85" type="curve" smooth="yes"/>
      <point x="266" y="85"/>
      <point x="297" y="108"/>
      <point x="333" y="170" type="curve"/>
      <point x="443" y="138" type="line"/>
      <point x="395" y="47"/>
      <point x="326" y="-10"/>
      <point x="215" y="-10" type="curve" smooth="yes"/>
      <point x="178" y="-10"/>
      <point x="145" y="-4"/>
      <point x="118" y="8" type="curve"/>
      <point x="42" y="-95" type="line"/>
      <point x="-43" y="-95" type="line"/>
      <point x="66" y="44" type="line"/>
      <point x="36" y="75"/>
      <point x="20" y="120"/>
      <point x="20" y="179" type="curve" smooth="yes"/>
      <point x="20" y="181" type="line" smooth="yes"/>
      <point x="20" y="211"/>
      <point x="26" y="252"/>
      <point x="35" y="289" type="curve" smooth="yes"/>
      <point x="75" y="445"/>
      <point x="164" y="542"/>
      <point x="312" y="542" type="curve" smooth="yes"/>
      <point x="353" y="542"/>
      <point x="383" y="535"/>
      <point x="414" y="520" type="curve"/>
      <point x="488" y="627" type="line"/>
    </contour>
    <contour>
      <point x="354" y="432" type="line"/>
      <point x="340" y="442"/>
      <point x="324" y="447"/>
      <point x="303" y="447" type="curve" smooth="yes"/>
      <point x="247" y="447"/>
      <point x="203" y="389"/>
      <point x="172" y="277" type="curve" smooth="yes"/>
      <point x="160" y="232"/>
      <point x="153" y="199"/>
      <point x="153" y="170" type="curve" smooth="yes"/>
      <point x="153" y="168" type="line" smooth="yes"/>
      <point x="153" y="159"/>
      <point x="154" y="152"/>
      <point x="155" y="144" type="curve"/>
    </contour>
  </outline>
</glyph>
<glyph name="copyright" format="1">
  <advance width="820"/>
  <unicode hex="00A9"/>
  <outline>
    <contour>
      <point x="805" y="361" type="curve" smooth="yes"/>
      <point x="805" y="148"/>
      <point x="645" y="-12"/>
      <point x="433" y="-12" type="curve" smooth="yes"/>
      <point x="220" y="-12"/>
      <point x="61" y="147"/>
      <point x="61" y="359" type="curve" smooth="yes"/>
      <point x="61" y="572"/>
      <point x="221" y="732"/>
      <point x="434" y="732" type="curve" smooth="yes"/>
      <point x="647" y="732"/>
      <point x="805" y="573"/>
    </contour>
    <contour>
      <point x="761" y="359" type="curve" smooth="yes"/>
      <point x="761" y="552"/>
      <point x="625" y="694"/>
      <point x="433" y="694" type="curve" smooth="yes"/>
      <point x="240" y="694"/>
      <point x="105" y="553"/>
      <point x="105" y="361" type="curve" smooth="yes"/>
      <point x="105" y="168"/>
      <point x="242" y="26"/>
      <point x="434" y="26" type="curve" smooth="yes"/>
      <point x="626" y="26"/>
      <point x="761" y="167"/>
    </contour>
    <contour>
      <point x="591" y="289" type="line"/>
      <point x="574" y="198"/>
      <point x="523" y="147"/>
      <point x="432" y="147" type="curve" smooth="yes"/>
      <point x="332" y="147"/>
      <point x="265" y="219"/>
      <point x="265" y="351" type="curve" smooth="yes"/>
      <point x="265" y="379" type="line" smooth="yes"/>
      <point x="265" y="511"/>
      <point x="332" y="582"/>
      <point x="433" y="582" type="curve" smooth="yes"/>
      <point x="531" y="582"/>
      <point x="575" y="525"/>
      <point x="589" y="443" type="curve"/>
      <point x="493" y="420" type="line"/>
      <point x="484" y="480"/>
      <point x="468" y="505"/>
      <point x="433" y="505" type="curve" smooth="yes"/>
      <point x="387" y="505"/>
      <point x="369" y="460"/>
      <point x="369" y="391" type="curve" smooth="yes"/>
      <point x="369" y="339" type="line" smooth="yes"/>
      <point x="369" y="271"/>
      <point x="387" y="225"/>
      <point x="433" y="225" type="curve" smooth="yes"/>
      <point x="470" y="225"/>
      <point x="487" y="251"/>
      <point x="499" y="311" type="curve"/>
    </contour>
  </outline>
</glyph>
<glyph name="ordfeminine" format="1">
  <advance width="404"/>
  <unicode hex="00AA"/>
  <outline>
    <contour>
      <point x="420" y="644" type="curve" smooth="yes"/>
      <point x="420" y="630"/>
      <point x="418" y="613"/>
      <point x="414" y="597" type="curve" smooth="yes"/>
      <point x="375" y="440" type="line" smooth="yes"/>
      <point x="374" y="434"/>
      <point x="372" y="427"/>
      <point x="372" y="422" type="curve" smooth="yes"/>
      <point x="372" y="410"/>
      <point x="380" y="404"/>
      <point x="400" y="402" type="curve"/>
      <point x="390" y="362" type="line"/>
      <point x="313" y="363"/>
      <point x="283" y="381"/>
      <point x="278" y="414" type="curve"/>
      <point x="237" y="378"/>
      <point x="204" y="361"/>
      <point x="162" y="361" type="curve" smooth="yes"/>
      <point x="115" y="361"/>
      <point x="84" y="389"/>
      <point x="84" y="438" type="curve" smooth="yes"/>
      <point x="84" y="513"/>
      <point x="145" y="571"/>
      <point x="312" y="577" type="curve"/>
      <point x="318" y="600" type="line" smooth="yes"/>
      <point x="320" y="608"/>
      <point x="322" y="617"/>
      <point x="322" y="623" type="curve" smooth="yes"/>
      <point x="322" y="644"/>
      <point x="307" y="655"/>
      <point x="279" y="655" type="curve" smooth="yes"/>
      <point x="247" y="655"/>
      <point x="216" y="647"/>
      <point x="172" y="626" type="curve"/>
      <point x="156" y="689" type="line"/>
      <point x="207" y="713"/>
      <point x="255" y="725"/>
      <point x="306" y="725" type="curve" smooth="yes"/>
      <point x="383" y="725"/>
      <point x="420" y="695"/>
    </contour>
    <contour>
      <point x="369" y="299" type="line"/>
      <point x="354" y="244" type="line"/>
      <point x="39" y="244" type="line"/>
      <point x="53" y="299" type="line"/>
    </contour>
    <contour>
      <point x="303" y="538" type="line"/>
      <point x="209" y="532"/>
      <point x="181" y="498"/>
      <point x="181" y="461" type="curve" smooth="yes"/>
      <point x="181" y="437"/>
      <point x="195" y="422"/>
      <point x="223" y="422" type="curve" smooth="yes"/>
      <point x="239" y="422"/>
      <point x="259" y="431"/>
      <point x="281" y="451" type="curve"/>
    </contour>
  </outline>
</glyph>
<glyph name="degree" format="1">
  <advance width="400"/>
  <unicode hex="00B0"/>
  <outline>
    <contour>
      <point x="411" y="568" type="curve" smooth="yes"/>
      <point x="411" y="476"/>
      <point x="344" y="411"/>
      <point x="253" y="411" type="curve" smooth="yes"/>
      <point x="162" y="411"/>
      <point x="94" y="476"/>
      <point x="94" y="568" type="curve" smooth="yes"/>
      <point x="94" y="659"/>
      <point x="162" y="724"/>
      <point x="253" y="724" type="curve" smooth="yes"/>
      <point x="344" y="724"/>
      <point x="411" y="659"/>
    </contour>
    <contour>
      <point x="338" y="568" type="curve" smooth="yes"/>
      <point x="338" y="620"/>
      <point x="304" y="660"/>
      <point x="253" y="660" type="curve" smooth="yes"/>
      <point x="202" y="660"/>
      <point x="168" y="620"/>
      <point x="168" y="568" type="curve" smooth="yes"/>
      <point x="168" y="515"/>
      <point x="202" y="475"/>
      <point x="253" y="475" type="curve" smooth="yes"/>
      <point x="304" y="475"/>
      <point x="338" y="515"/>
    </contour>
  </outline>
</glyph>
<glyph name="paragraph" format="1">
  <advance width="554"/>
  <unicode hex="00B6"/>
  <outline>
    <contour>
      <point x="601" y="720" type="line"/>
      <point x="421" y="0" type="line"/>
      <point x="357" y="0" type="line"/>
      <point x="521" y="660" type="line"/>
      <point x="434" y="660" type="line"/>
      <point x="270" y="0" type="line"/>
      <point x="205" y="0" type="line"/>
      <point x="282" y="310" type="line"/>
      <point x="174" y="328"/>
      <point x="89" y="379"/>
      <point x="89" y="498" type="curve" smooth="yes"/>
      <point x="89" y="627"/>
      <point x="193" y="720"/>
      <point x="374" y="720" type="curve" smooth="yes"/>
    </contour>
  </outline>
</glyph>
<glyph name="cedilla" format="1">
  <advance width="500"/>
  <unicode hex="00B8"/>
  <outline>
    <contour>
      <point x="297" y="-100" type="curve" smooth="yes"/>
      <point x="297" y="-161"/>
      <point x="218" y="-191"/>
      <point x="110" y="-191" type="curve" smooth="yes"/>
      <point x="76" y="-191"/>
      <point x="38" y="-187"/>
      <point x="12" y="-184" type="curve"/>
      <point x="21" y="-154" type="line"/>
      <point x="46" y="-156"/>
      <point x="74" y="-159"/>
      <point x="96" y="-159" type="curve" smooth="yes"/>
      <point x="167" y="-159"/>
      <point x="203" y="-144"/>
      <point x="203" y="-120" type="curve" smooth="yes"/>
      <point x="203" y="-105"/>
      <point x="191" y="-96"/>
      <point x="165" y="-96" type="curve" smooth="yes"/>
      <point x="149" y="-96"/>
      <point x="134" y="-99"/>
      <point x="113" y="-105" type="curve"/>
      <point x="85" y="-84" type="line"/>
      <point x="175" y="0" type="line"/>
      <point x="226" y="0" type="line"/>
      <point x="173" y="-48" type="line"/>
      <point x="185" y="-46"/>
      <point x="200" y="-45"/>
      <point x="213" y="-45" type="curve" smooth="yes"/>
      <point x="270" y="-45"/>
      <point x="297" y="-65"/>
    </contour>
  </outline>
</glyph>
<glyph name="ordmasculine" format="1">
  <advance width="404"/>
  <unicode hex="00BA"/>
  <outline>
    <contour>
      <point x="424" y="587" type="curve" smooth="yes"/>
      <point x="424" y="479"/>
      <point x="359" y="357"/>
      <point x="239" y="357" type="curve" smooth="yes"/>
      <point x="151" y="357"/>
      <point x="95" y="400"/>
      <point x="95" y="497" type="curve" smooth="yes"/>
      <point x="95" y="605"/>
      <point x="160" y="727"/>
      <point x="280" y="727" type="curve" smooth="yes"/>
      <point x="368" y="727"/>
      <point x="424" y="685"/>
    </contour>
    <contour>
      <point x="363" y="299" type="line"/>
      <point x="349" y="244" type="line"/>
      <point x="43" y="244" type="line"/>
      <point x="57" y="299" type="line"/>
    </contour>
    <contour>
      <point x="325" y="600" type="curve" smooth="yes"/>
      <point x="325" y="645"/>
      <point x="309" y="664"/>
      <point x="282" y="664" type="curve" smooth="yes"/>
      <point x="226" y="664"/>
      <point x="194" y="549"/>
      <point x="194" y="485" type="curve" smooth="yes"/>
      <point x="194" y="440"/>
      <point x="210" y="421"/>
      <point x="237" y="421" type="curve" smooth="yes"/>
      <point x="293" y="421"/>
      <point x="325" y="536"/>
    </contour>
  </outline>
</glyph>
<glyph name="questiondown" format="1">
  <advance width="497"/>
  <unicode hex="00BF"/>
  <outline>
    <contour>
      <point x="449" y="648" type="curve" smooth="yes"/>
      <point x="449" y="600"/>
      <point x="414" y="565"/>
      <point x="366" y="565" type="curve" smooth="yes"/>
      <point x="318" y="565"/>
      <point x="283" y="600"/>
      <point x="283" y="648" type="curve" smooth="yes"/>
      <point x="283" y="695"/>
      <point x="318" y="731"/>
      <point x="366" y="731" type="curve" smooth="yes"/>
      <point x="414" y="731"/>
      <point x="449" y="695"/>
    </contour>
    <contour>
      <point x="455" y="144" type="line"/>
      <point x="390" y="42"/>
      <point x="306" y="-8"/>
      <point x="206" y="-8" type="curve" smooth="yes"/>
      <point x="85" y="-8"/>
      <point x="4" y="54"/>
      <point x="4" y="150" type="curve" smooth="yes"/>
      <point x="4" y="253"/>
      <point x="64" y="312"/>
      <point x="164" y="368" type="curve" smooth="yes"/>
      <point x="236" y="408"/>
      <point x="261" y="430"/>
      <point x="280" y="489" type="curve"/>
      <point x="380" y="489" type="line"/>
      <point x="369" y="382"/>
      <point x="338" y="341"/>
      <point x="250" y="289" type="curve" smooth="yes"/>
      <point x="192" y="254"/>
      <point x="155" y="218"/>
      <point x="155" y="171" type="curve" smooth="yes"/>
      <point x="155" y="130"/>
      <point x="181" y="108"/>
      <point x="222" y="108" type="curve" smooth="yes"/>
      <point x="264" y="108"/>
      <point x="304" y="136"/>
      <point x="353" y="206" type="curve"/>
    </contour>
  </outline>
</glyph>
<glyph name="AE" format="1">
  <advance width="956"/>
  <unicode hex="00C6"/>
  <outline>
    <contour>
      <point x="1027" y="720" type="line"/>
      <point x="997" y="596" type="line"/>
      <point x="700" y="596" type="line"/>
      <point x="658" y="430" type="line"/>
      <point x="879" y="430" type="line"/>
      <point x="850" y="313" type="line"/>
      <point x="630" y="313" type="line"/>
      <point x="582" y="124" type="line"/>
      <point x="891" y="124" type="line"/>
      <point x="860" y="0" type="line"/>
      <point x="398" y="0" type="line"/>
      <point x="438" y="163" type="line"/>
      <point x="218" y="163" type="line"/>
      <point x="104" y="0" type="line"/>
      <point x="-64" y="0" type="line"/>
      <point x="455" y="720" type="line"/>
    </contour>
    <contour>
      <point x="548" y="603" type="line"/>
      <point x="523" y="603" type="line"/>
      <point x="286" y="266" type="line"/>
      <point x="464" y="266" type="line"/>
    </contour>
  </outline>
</glyph>
<glyph name="multiply" format="1">
  <advance width="600"/>
  <unicode hex="00D7"/>
  <outline>
    <contour>
      <point x="576" y="192" type="line"/>
      <point x="486" y="101" type="line"/>
      <point x="322" y="270" type="line"/>
      <point x="159" y="101" type="line"/>
      <point x="69" y="192" type="line"/>
      <point x="237" y="355" type="line"/>
      <point x="69" y="518" type="line"/>
      <point x="159" y="609" type="line"/>
      <point x="322" y="440" type="line"/>
      <point x="486" y="609" type="line"/>
      <point x="576" y="518" type="line"/>
      <point x="407" y="355" type="line"/>
    </contour>
  </outline>
</glyph>
<glyph name="Oslash" format="1">
  <advance width="642"/>
  <unicode hex="00D8"/>
  <outline>
    <contour>
      <point x="731" y="817" type="line"/>
      <point x="599" y="646" type="line"/>
      <point x="627" y="607"/>
      <point x="642" y="555"/>
      <point x="642" y="493" type="curve" smooth="yes"/>
      <point x="642" y="489" type="line" smooth="yes"/>
      <point x="642" y="449"/>
      <point x="635" y="389"/>
      <point x="625" y="344" type="curve" smooth="yes"/>
      <point x="573" y="114"/>
      <point x="463" y="-12"/>
      <point x="280" y="-12" type="curve" smooth="yes"/>
      <point x="224" y="-12"/>
      <point x="176" y="2"/>
      <point x="138" y="27" type="curve"/>
      <point x="50" y="-95" type="line"/>
      <point x="-41" y="-95" type="line"/>
      <point x="90" y="74" type="line"/>
      <point x="62" y="113"/>
      <point x="47" y="164"/>
      <point x="47" y="227" type="curve" smooth="yes"/>
      <point x="47" y="231" type="line" smooth="yes"/>
      <point x="47" y="271"/>
      <point x="54" y="331"/>
      <point x="64" y="376" type="curve" smooth="yes"/>
      <point x="115" y="606"/>
      <point x="226" y="732"/>
      <point x="409" y="732" type="curve" smooth="yes"/>
      <point x="465" y="732"/>
      <point x="513" y="719"/>
      <point x="550" y="693" type="curve"/>
      <point x="640" y="817" type="line"/>
    </contour>
    <contour>
      <point x="471" y="584" type="line"/>
      <point x="455" y="605"/>
      <point x="432" y="617"/>
      <point x="400" y="617" type="curve" smooth="yes"/>
      <point x="322" y="617"/>
      <point x="265" y="544"/>
      <point x="226" y="399" type="curve" smooth="yes"/>
      <point x="203" y="316"/>
      <point x="194" y="263"/>
      <point x="194" y="222" type="curve" smooth="yes"/>
      <point x="194" y="219" type="line" smooth="yes"/>
      <point x="194" y="213"/>
      <point x="194" y="208"/>
      <point x="195" y="203" type="curve"/>
    </contour>
    <contour>
      <point x="494" y="498" type="curve" smooth="yes"/>
      <point x="494" y="501" type="line" smooth="yes"/>
      <point x="494" y="507"/>
      <point x="494" y="512"/>
      <point x="493" y="518" type="curve"/>
      <point x="217" y="136" type="line"/>
      <point x="233" y="115"/>
      <point x="257" y="103"/>
      <point x="289" y="103" type="curve" smooth="yes"/>
      <point x="367" y="103"/>
      <point x="424" y="176"/>
      <point x="463" y="321" type="curve" smooth="yes"/>
      <point x="486" y="404"/>
      <point x="494" y="457"/>
    </contour>
  </outline>
</glyph>
<glyph name="ae" format="1">
  <advance width="782"/>
  <unicode hex="00E6"/>
  <outline>
    <contour>
      <point x="766" y="366" type="curve" smooth="yes"/>
      <point x="766" y="326"/>
      <point x="758" y="282"/>
      <point x="744" y="231" type="curve"/>
      <point x="449" y="231" type="line"/>
      <point x="448" y="217"/>
      <point x="446" y="203"/>
      <point x="446" y="190" type="curve" smooth="yes"/>
      <point x="446" y="188" type="line" smooth="yes"/>
      <point x="446" y="124"/>
      <point x="480" y="94"/>
      <point x="540" y="94" type="curve" smooth="yes"/>
      <point x="581" y="94"/>
      <point x="631" y="109"/>
      <point x="689" y="135" type="curve"/>
      <point x="704" y="38" type="line"/>
      <point x="635" y="8"/>
      <point x="585" y="-8"/>
      <point x="507" y="-8" type="curve" smooth="yes"/>
      <point x="418" y="-8"/>
      <point x="359" y="23"/>
      <point x="330" y="81" type="curve"/>
      <point x="322" y="81" type="line"/>
      <point x="244" y="18"/>
      <point x="187" y="-6"/>
      <point x="113" y="-6" type="curve" smooth="yes"/>
      <point x="40" y="-6"/>
      <point x="-7" y="34"/>
      <point x="-7" y="106" type="curve" smooth="yes"/>
      <point x="-7" y="218"/>
      <point x="86" y="306"/>
      <point x="330" y="315" type="curve"/>
      <point x="340" y="353" type="line" smooth="yes"/>
      <point x="343" y="365"/>
      <point x="344" y="377"/>
      <point x="344" y="386" type="curve" smooth="yes"/>
      <point x="344" y="418"/>
      <point x="323" y="436"/>
      <point x="281" y="436" type="curve" smooth="yes"/>
      <point x="235" y="436"/>
      <point x="195" y="424"/>
      <point x="126" y="395" type="curve"/>
      <point x="104" y="485" type="line"/>
      <point x="181" y="520"/>
      <point x="242" y="538"/>
      <point x="312" y="538" type="curve" smooth="yes"/>
      <point x="387" y="538"/>
      <point x="422" y="514"/>
      <point x="434" y="465" type="curve"/>
      <point x="441" y="465" type="line"/>
      <point x="485" y="513"/>
      <point x="535" y="542"/>
      <point x="598" y="542" type="curve" smooth="yes"/>
      <point x="720" y="542"/>
      <point x="766" y="470"/>
    </contour>
    <contour>
      <point x="633" y="375" type="curve" smooth="yes"/>
      <point x="633" y="423"/>
      <point x="620" y="455"/>
      <point x="580" y="455" type="curve" smooth="yes"/>
      <point x="531" y="455"/>
      <point x="485" y="384"/>
      <point x="462" y="292" type="curve"/>
      <point x="620" y="292" type="line"/>
      <point x="628" y="325"/>
      <point x="633" y="355"/>
    </contour>
    <contour>
      <point x="317" y="260" type="curve"/>
      <point x="180" y="251"/>
      <point x="136" y="196"/>
      <point x="136" y="141" type="curve" smooth="yes"/>
      <point x="136" y="103"/>
      <point x="157" y="82"/>
      <point x="198" y="82" type="curve" smooth="yes"/>
      <point x="229" y="82"/>
      <point x="261" y="93"/>
      <point x="311" y="136" type="curve"/>
      <point x="309" y="149"/>
      <point x="308" y="164"/>
      <point x="308" y="179" type="curve" smooth="yes"/>
      <point x="308" y="181" type="line" smooth="yes"/>
      <point x="308" y="205"/>
      <point x="312" y="232"/>
    </contour>
  </outline>
</glyph>
<glyph name="ccedilla" format="1">
  <advance width="486"/>
  <unicode hex="00E7"/>
  <outline>
    <contour>
      <point x="488" y="359" type="curve"/>
      <point x="347" y="342" type="line"/>
      <point x="351" y="411"/>
      <point x="341" y="445"/>
      <point x="300" y="445" type="curve" smooth="yes"/>
      <point x="248" y="445"/>
      <point x="213" y="382"/>
      <point x="185" y="276" type="curve" smooth="yes"/>
      <point x="173" y="233"/>
      <point x="167" y="193"/>
      <point x="167" y="163" type="curve" smooth="yes"/>
      <point x="167" y="161" type="line" smooth="yes"/>
      <point x="167" y="113"/>
      <point x="189" y="87"/>
      <point x="223" y="87" type="curve" smooth="yes"/>
      <point x="256" y="87"/>
      <point x="283" y="114"/>
      <point x="315" y="175" type="curve"/>
      <point x="442" y="138" type="line"/>
      <point x="394" y="47"/>
      <point x="326" y="-9"/>
      <point x="215" y="-10" type="curve"/>
      <point x="174" y="-48" type="line"/>
      <point x="186" y="-46"/>
      <point x="201" y="-45"/>
      <point x="214" y="-45" type="curve" smooth="yes"/>
      <point x="271" y="-45"/>
      <point x="298" y="-65"/>
      <point x="298" y="-100" type="curve" smooth="yes"/>
      <point x="298" y="-161"/>
      <point x="219" y="-191"/>
      <point x="110" y="-191" type="curve" smooth="yes"/>
      <point x="77" y="-191"/>
      <point x="38" y="-187"/>
      <point x="13" y="-184" type="curve"/>
      <point x="22" y="-154" type="line"/>
      <point x="47" y="-156"/>
      <point x="75" y="-159"/>
      <point x="96" y="-159" type="curve" smooth="yes"/>
      <point x="168" y="-159"/>
      <point x="204" y="-144"/>
      <point x="204" y="-120" type="curve" smooth="yes"/>
      <point x="204" y="-105"/>
      <point x="192" y="-96"/>
      <point x="166" y="-96" type="curve" smooth="yes"/>
      <point x="150" y="-96"/>
      <point x="135" y="-99"/>
      <point x="114" y="-105" type="curve"/>
      <point x="86" y="-84" type="line"/>
      <point x="169" y="-7" type="line"/>
      <point x="77" y="7"/>
      <point x="20" y="70"/>
      <point x="20" y="179" type="curve" smooth="yes"/>
      <point x="20" y="181" type="line" smooth="yes"/>
      <point x="20" y="211"/>
      <point x="26" y="252"/>
      <point x="35" y="289" type="curve" smooth="yes"/>
      <point x="75" y="445"/>
      <point x="163" y="542"/>
      <point x="313" y="542" type="curve" smooth="yes"/>
      <point x="444" y="542"/>
      <point x="492" y="471"/>
    </contour>
  </outline>
</glyph>
<glyph name="circumflex" format="1">
  <advance width="500"/>
  <unicode hex="02C6"/>
  <outline>
    <contour>
      <point x="500" y="590" type="line"/>
      <point x="432" y="590" type="line"/>
      <point x="356" y="674" type="line"/>
      <point x="238" y="590" type="line"/>
      <point x="161" y="590" type="line"/>
      <point x="316" y="756" type="line"/>
      <point x="427" y="756" type="line"/>
    </contour>
  </outline>
</glyph>
<glyph name="caron" format="1">
  <advance width="500"/>
  <unicode hex="02C7"/>
  <outline>
    <contour>
      <point x="538" y="758" type="line"/>
      <point x="383" y="592" type="line"/>
      <point x="272" y="592" type="line"/>
      <point x="199" y="758" type="line"/>
      <point x="267" y="758" type="line"/>
      <point x="344" y="674" type="line"/>
      <point x="461" y="758" type="line"/>
    </contour>
  </outline>
</glyph>
<glyph name="ogonek" format="1">
  <advance width="500"/>
  <unicode hex="02DB"/>
  <outline>
    <contour>
      <point x="289" y="-157" type="line"/>
      <point x="240" y="-179"/>
      <point x="192" y="-190"/>
      <point x="145" y="-190" type="curve" smooth="yes"/>
      <point x="79" y="-190"/>
      <point x="44" y="-166"/>
      <point x="44" y="-126" type="curve" smooth="yes"/>
      <point x="44" y="-85"/>
      <point x="86" y="-39"/>
      <point x="176" y="0" type="curve"/>
      <point x="242" y="0" type="line"/>
      <point x="168" y="-45"/>
      <point x="147" y="-78"/>
      <point x="147" y="-103" type="curve" smooth="yes"/>
      <point x="147" y="-121"/>
      <point x="163" y="-134"/>
      <point x="193" y="-134" type="curve" smooth="yes"/>
      <point x="221" y="-134"/>
      <point x="244" y="-130"/>
      <point x="281" y="-119" type="curve"/>
    </contour>
  </outline>
</glyph>
<glyph name="tilde" format="1">
  <advance width="500"/>
  <unicode hex="02DC"/>
  <outline>
    <contour>
      <point x="539" y="740" type="line"/>
      <point x="521" y="637"/>
      <point x="480" y="591"/>
      <point x="411" y="591" type="curve" smooth="yes"/>
      <point x="345" y="591"/>
      <point x="313" y="644"/>
      <point x="277" y="644" type="curve" smooth="yes"/>
      <point x="253" y="644"/>
      <point x="239" y="629"/>
      <point x="230" y="593" type="curve"/>
      <point x="160" y="593" type="line"/>
      <point x="178" y="695"/>
      <point x="218" y="742"/>
      <point x="288" y="742" type="curve" smooth="yes"/>
      <point x="354" y="742"/>
      <point x="386" y="689"/>
      <point x="422" y="689" type="curve" smooth="yes"/>
      <point x="446" y="689"/>
      <point x="460" y="704"/>
      <point x="470" y="740" type="curve"/>
    </contour>
  </outline>
</glyph>
<glyph name="endash" format="1">
  <advance width="500"/>
  <unicode hex="2013"/>
  <outline>
    <contour>
      <point x="488" y="350" type="line"/>
      <point x="456" y="226" type="line"/>
      <point x="22" y="226" type="line"/>
      <point x="54" y="350" type="line"/>
    </contour>
  </outline>
</glyph>
<glyph name="quoteleft" format="1">
  <advance width="236"/>
  <unicode hex="2018"/>
  <unicode hex="02BB"/>
  <outline>
    <contour>
      <point x="291" y="720" type="line"/>
      <point x="254" y="440" type="line"/>
      <point x="173" y="440" type="line"/>
      <point x="134" y="720" type="line"/>
    </contour>
  </outline>
</glyph>
<glyph name="quotedblbase" format="1">
  <advance width="442"/>
  <unicode hex="201E"/>
  <outline>
    <contour>
      <point x="400" y="165" type="line"/>
      <point x="231" y="-115" type="line"/>
      <point x="144" y="-115" type="line"/>
      <point x="237" y="165" type="line"/>
    </contour>
    <contour>
      <point x="191" y="165" type="line"/>
      <point x="22" y="-115" type="line"/>
      <point x="-65" y="-115" type="line"/>
      <point x="28" y="165" type="line"/>
    </contour>
  </outline>
</glyph>
<glyph name="perthousand" format="1">
  <advance width="1350"/>
  <unicode hex="2030"/>
  <outline>
    <contour>
      <point x="1320" y="257" type="curve" smooth="yes"/>
      <point x="1320" y="134"/>
      <point x="1235" y="-7"/>
      <point x="1098" y="-7" type="curve" smooth="yes"/>
      <point x="1007" y="-7"/>
      <point x="939" y="45"/>
      <point x="939" y="150" type="curve" smooth="yes"/>
      <point x="939" y="273"/>
      <point x="1024" y="414"/>
      <point x="1161" y="414" type="curve" smooth="yes"/>
      <point x="1252" y="414"/>
      <point x="1320" y="362"/>
    </contour>
    <contour>
      <point x="900" y="257" type="curve" smooth="yes"/>
      <point x="900" y="134"/>
      <point x="815" y="-7"/>
      <point x="678" y="-7" type="curve" smooth="yes"/>
      <point x="587" y="-7"/>
      <point x="519" y="45"/>
      <point x="519" y="150" type="curve" smooth="yes"/>
      <point x="519" y="273"/>
      <point x="604" y="414"/>
      <point x="741" y="414" type="curve" smooth="yes"/>
      <point x="832" y="414"/>
      <point x="900" y="362"/>
    </contour>
    <contour>
      <point x="867" y="720" type="line"/>
      <point x="518" y="346" type="line"/>
      <point x="243" y="0" type="line"/>
      <point x="107" y="0" type="line"/>
      <point x="457" y="374" type="line"/>
      <point x="732" y="720" type="line"/>
    </contour>
    <contour>
      <point x="456" y="572" type="curve" smooth="yes"/>
      <point x="456" y="449"/>
      <point x="370" y="306"/>
      <point x="233" y="306" type="curve" smooth="yes"/>
      <point x="142" y="306"/>
      <point x="74" y="358"/>
      <point x="74" y="463" type="curve" smooth="yes"/>
      <point x="74" y="586"/>
      <point x="160" y="727"/>
      <point x="297" y="727" type="curve" smooth="yes"/>
      <point x="388" y="727"/>
      <point x="456" y="677"/>
    </contour>
    <contour>
      <point x="1212" y="253" type="curve" smooth="yes"/>
      <point x="1212" y="300"/>
      <point x="1190" y="328"/>
      <point x="1155" y="328" type="curve" smooth="yes"/>
      <point x="1085" y="328"/>
      <point x="1048" y="219"/>
      <point x="1048" y="154" type="curve" smooth="yes"/>
      <point x="1048" y="107"/>
      <point x="1070" y="79"/>
      <point x="1105" y="79" type="curve" smooth="yes"/>
      <point x="1174" y="79"/>
      <point x="1212" y="188"/>
    </contour>
    <contour>
      <point x="792" y="253" type="curve" smooth="yes"/>
      <point x="792" y="300"/>
      <point x="770" y="328"/>
      <point x="735" y="328" type="curve" smooth="yes"/>
      <point x="665" y="328"/>
      <point x="628" y="219"/>
      <point x="628" y="154" type="curve" smooth="yes"/>
      <point x="628" y="107"/>
      <point x="650" y="79"/>
      <point x="685" y="79" type="curve" smooth="yes"/>
      <point x="754" y="79"/>
      <point x="792" y="188"/>
    </contour>
    <contour>
      <point x="347" y="566" type="curve" smooth="yes"/>
      <point x="347" y="613"/>
      <point x="325" y="641"/>
      <point x="290" y="641" type="curve" smooth="yes"/>
      <point x="221" y="641"/>
      <point x="183" y="532"/>
      <point x="183" y="467" type="curve" smooth="yes"/>
      <point x="183" y="420"/>
      <point x="205" y="392"/>
      <point x="240" y="392" type="curve" smooth="yes"/>
      <point x="310" y="392"/>
      <point x="347" y="501"/>
    </contour>
  </outline>
</glyph>
<glyph name="guilsinglleft" format="1">
  <advance width="289"/>
  <unicode hex="2039"/>
  <outline>
    <contour>
      <point x="310" y="462" type="line"/>
      <point x="170" y="264" type="line"/>
      <point x="211" y="70" type="line"/>
      <point x="135" y="70" type="line"/>
      <point x="17" y="266" type="line"/>
      <point x="223" y="462" type="line"/>
    </contour>
  </outline>
</glyph>
<glyph name="guilsinglright" format="1">
  <advance width="289"/>
  <unicode hex="203A"/>
  <outline>
    <contour>
      <point x="272" y="266" type="line"/>
      <point x="66" y="70" type="line"/>
      <point x="-21" y="70" type="line"/>
      <point x="118" y="268" type="line"/>
      <point x="78" y="462" type="line"/>
      <point x="154" y="462" type="line"/>
    </contour>
  </outline>
</glyph>
<glyph name="fraction" format="1">
  <advance width="400"/>
  <unicode hex="2044"/>
  <outline>
    <contour>
      <point x="563" y="735" type="line"/>
      <point x="23" y="-15" type="line"/>
      <point x="-117" y="-15" type="line"/>
      <point x="423" y="735" type="line"/>
    </contour>
  </outline>
</glyph>
<glyph name="uni2117" format="1">
  <advance width="820"/>
  <unicode hex="2117"/>
  <outline>
    <contour>
      <point x="805" y="361" type="curve" smooth="yes"/>
      <point x="805" y="148"/>
      <point x="645" y="-12"/>
      <point x="433" y="-12" type="curve" smooth="yes"/>
      <point x="220" y="-12"/>
      <point x="61" y="147"/>
      <point x="61" y="359" type="curve" smooth="yes"/>
      <point x="61" y="572"/>
      <point x="221" y="732"/>
      <point x="434" y="732" type="curve" smooth="yes"/>
      <point x="647" y="732"/>
      <point x="805" y="573"/>
    </contour>
    <contour>
      <point x="761" y="359" type="curve" smooth="yes"/>
      <point x="761" y="552"/>
      <point x="625" y="694"/>
      <point x="433" y="694" type="curve" smooth="yes"/>
      <point x="240" y="694"/>
      <point x="105" y="553"/>
      <point x="105" y="361" type="curve" smooth="yes"/>
      <point x="105" y="168"/>
      <point x="242" y="26"/>
      <point x="434" y="26" type="curve" smooth="yes"/>
      <point x="626" y="26"/>
      <point x="761" y="167"/>
    </contour>
    <contour>
      <point x="611" y="445" type="curve" smooth="yes"/>
      <point x="611" y="356"/>
      <point x="553" y="310"/>
      <point x="450" y="310" type="curve" smooth="yes"/>
      <point x="407" y="310" type="line"/>
      <point x="407" y="152" type="line"/>
      <point x="306" y="152" type="line"/>
      <point x="306" y="573" type="line"/>
      <point x="455" y="573" type="line" smooth="yes"/>
      <point x="551" y="573"/>
      <point x="611" y="531"/>
    </contour>
    <contour>
      <point x="511" y="444" type="curve" smooth="yes"/>
      <point x="511" y="481"/>
      <point x="488" y="501"/>
      <point x="445" y="501" type="curve" smooth="yes"/>
      <point x="403" y="501" type="line"/>
      <point x="403" y="384" type="line"/>
      <point x="446" y="384" type="line" smooth="yes"/>
      <point x="488" y="384"/>
      <point x="511" y="405"/>
    </contour>
  </outline>
</glyph>
<glyph name="fi" format="1">
  <advance width="647"/>
  <unicode hex="FB01"/>
  <outline>
    <contour>
      <point x="713" y="727" type="line"/>
      <point x="684" y="610" type="line"/>
      <point x="521" y="610" type="line"/>
      <point x="550" y="727" type="line"/>
    </contour>
    <contour>
      <point x="658" y="532" type="line"/>
      <point x="526" y="0" type="line"/>
      <point x="375" y="0" type="line"/>
      <point x="508" y="532" type="line"/>
    </contour>
    <contour>
      <point x="507" y="745" type="curve"/>
      <point x="482" y="645" type="line"/>
      <point x="465" y="652"/>
      <point x="445" y="657"/>
      <point x="418" y="657" type="curve" smooth="yes"/>
      <point x="374" y="657"/>
      <point x="346" y="638"/>
      <point x="333" y="585" type="curve" smooth="yes"/>
      <point x="319" y="529" type="line"/>
      <point x="445" y="529" type="line"/>
      <point x="420" y="428" type="line"/>
      <point x="295" y="428" type="line"/>
      <point x="188" y="0" type="line"/>
      <point x="40" y="0" type="line"/>
      <point x="147" y="428" type="line"/>
      <point x="52" y="428" type="line"/>
      <point x="77" y="529" type="line"/>
      <point x="172" y="529" type="line"/>
      <point x="190" y="602" type="line" smooth="yes"/>
      <point x="218" y="716"/>
      <point x="278" y="759"/>
      <point x="397" y="759" type="curve" smooth="yes"/>
      <point x="444" y="759"/>
      <point x="477" y="754"/>
    </contour>
  </outline>
</glyph>
<glyph name="macron" format="1">
  <advance width="500"/>
  <outline>
    <contour>
      <point x="510" y="712" type="line"/>
      <point x="488" y="623" type="line"/>
      <point x="189" y="623" type="line"/>
      <point x="211" y="712" type="line"/>
    </contour>
  </outline>
</glyph>
<glyph name="registered.big" format="1">
  <advance width="820"/>
  <outline>
    <contour>
      <point x="805" y="361" type="curve" smooth="yes"/>
      <point x="805" y="148"/>
      <point x="645" y="-12"/>
      <point x="433" y="-12" type="curve" smooth="yes"/>
      <point x="220" y="-12"/>
      <point x="61" y="147"/>
      <point x="61" y="359" type="curve" smooth="yes"/>
      <point x="61" y="572"/>
      <point x="221" y="732"/>
      <point x="434" y="732" type="curve" smooth="yes"/>
      <point x="647" y="732"/>
      <point x="805" y="573"/>
    </contour>
    <contour>
      <point x="761" y="359" type="curve" smooth="yes"/>
      <point x="761" y="552"/>
      <point x="625" y="694"/>
      <point x="433" y="694" type="curve" smooth="yes"/>
      <point x="240" y="694"/>
      <point x="105" y="553"/>
      <point x="105" y="361" type="curve" smooth="yes"/>
      <point x="105" y="168"/>
      <point x="242" y="26"/>
      <point x="434" y="26" type="curve" smooth="yes"/>
      <point x="626" y="26"/>
      <point x="761" y="167"/>
    </contour>
    <contour>
      <point x="619" y="157" type="line"/>
      <point x="510" y="157" type="line"/>
      <point x="418" y="323" type="line"/>
      <point x="390" y="323" type="line"/>
      <point x="390" y="157" type="line"/>
      <point x="289" y="157" type="line"/>
      <point x="289" y="578" type="line"/>
      <point x="445" y="578" type="line" smooth="yes"/>
      <point x="538" y="578"/>
      <point x="598" y="537"/>
      <point x="598" y="452" type="curve" smooth="yes"/>
      <point x="598" y="394"/>
      <point x="567" y="355"/>
      <point x="515" y="338" type="curve"/>
    </contour>
    <contour>
      <point x="497" y="451" type="curve" smooth="yes"/>
      <point x="497" y="487"/>
      <point x="475" y="506"/>
      <point x="432" y="506" type="curve" smooth="yes"/>
      <point x="386" y="506" type="line"/>
      <point x="386" y="392" type="line"/>
      <point x="433" y="392" type="line" smooth="yes"/>
      <point x="475" y="392"/>
      <point x="497" y="412"/>
    </contour>
  </outline>
</glyph>
